<svg version="1.1" id="Layer_1" xmlns="http://www.w3.org/2000/svg" xmlns:xlink="http://www.w3.org/1999/xlink" x="0px" y="0px"
	 width="100%" viewBox="0 0 150 145" enable-background="new 0 0 150 145" xml:space="preserve">
<path fill="#000000" opacity="1.000000" stroke="none" 
	d="
M102.000000,146.000000 
	C68.000000,146.000000 34.500000,146.000000 1.000000,146.000000 
	C1.000000,97.666664 1.000000,49.333332 1.000000,1.000000 
	C51.000000,1.000000 101.000000,1.000000 151.000000,1.000000 
	C151.000000,49.333332 151.000000,97.666664 151.000000,146.000000 
	C134.833328,146.000000 118.666664,146.000000 102.000000,146.000000 
M137.965485,98.378624 
	C140.917328,93.377075 143.869171,88.375526 146.839569,83.342560 
	C133.235046,80.083351 120.047050,76.923935 106.628510,73.709282 
	C109.360954,65.402908 111.719696,57.746784 114.404724,50.206852 
	C117.092995,42.657829 120.849152,35.408268 122.757851,27.686489 
	C124.469070,20.763617 125.328773,13.761567 129.566422,7.698191 
	C130.313736,6.628906 129.672485,4.589166 129.672485,2.232441 
	C127.252602,5.262459 125.340782,7.278249 123.862198,9.573171 
	C117.459839,19.510267 111.093422,29.472967 104.884384,39.531578 
	C96.442390,53.207596 88.100372,66.946968 79.955765,80.800430 
	C79.518471,81.544228 80.998665,84.521454 82.100266,84.880081 
	C88.168137,86.855499 94.369659,88.447304 100.576210,89.962273 
	C106.957359,91.519852 113.396965,92.837952 120.285461,94.366112 
	C118.154976,111.851730 106.483215,126.337143 104.888191,143.701675 
	C105.498886,144.026001 106.109573,144.350311 106.720268,144.674622 
	C116.986908,129.442917 127.253540,114.211205 137.965485,98.378624 
M69.494194,50.006500 
	C47.376328,50.006500 25.258465,50.006500 3.140600,50.006500 
	C3.026397,50.448467 2.912194,50.890434 2.797991,51.332401 
	C18.805286,60.254208 37.159889,63.046478 54.512817,70.005943 
	C53.571236,71.648018 52.822220,73.236008 51.824314,74.648117 
	C46.042847,82.829376 40.179893,90.953110 34.412029,99.143852 
	C33.708870,100.142387 33.410023,101.425644 32.923801,102.576950 
	C34.282028,103.050980 35.638893,103.933868 36.998680,103.938393 
	C61.830772,104.020874 86.663223,104.003830 111.495567,103.978851 
	C112.656654,103.977684 113.817459,103.706024 114.978401,103.560333 
	C115.010971,103.193405 115.043541,102.826469 115.076111,102.459541 
	C112.559547,101.800888 110.042984,101.142227 106.704620,100.268486 
	C109.238937,100.022820 110.853859,99.866272 113.355652,99.623756 
	C105.456772,97.823624 98.559296,96.251709 91.661812,94.679794 
	C91.592125,94.992111 91.522430,95.304436 91.452736,95.616760 
	C93.828873,96.210510 96.205017,96.804260 98.581154,97.398010 
	C98.498306,97.737633 98.415459,98.077248 98.332611,98.416870 
	C91.662956,96.832779 84.993301,95.248688 77.505920,93.470383 
	C79.694359,93.089340 81.065147,92.850662 82.921776,92.527397 
	C76.198212,90.794586 70.055618,89.211510 63.343948,87.481766 
	C70.674385,74.924133 77.693985,62.898991 85.222618,50.001827 
	C79.135841,50.001827 74.812973,50.001827 69.494194,50.006500 
M51.500000,48.994560 
	C61.780563,48.994560 72.061127,48.994560 82.341682,48.994560 
	C82.336922,48.771042 82.332161,48.547523 82.327400,48.324005 
	C56.441021,48.324005 30.554646,48.324005 4.668271,48.324005 
	C4.668156,48.547523 4.668040,48.771042 4.667925,48.994560 
	C19.945284,48.994560 35.222641,48.994560 51.500000,48.994560 
M105.382896,105.996567 
	C107.728928,105.996567 110.074959,105.996567 112.420982,105.996567 
	C112.413330,105.766182 112.405670,105.535805 112.398010,105.305420 
	C86.468651,105.305420 60.539288,105.305420 34.609928,105.305420 
	C34.609741,105.535805 34.609550,105.766182 34.609364,105.996567 
	C57.877174,105.996567 81.144981,105.996567 105.382896,105.996567 
z"/>
<path fill="#FFFFFF" opacity="1.000000" stroke="none" 
	d="
M137.742828,98.679062 
	C127.253540,114.211205 116.986908,129.442917 106.720268,144.674622 
	C106.109573,144.350311 105.498886,144.026001 104.888191,143.701675 
	C106.483215,126.337143 118.154976,111.851730 120.285461,94.366112 
	C113.396965,92.837952 106.957359,91.519852 100.576210,89.962273 
	C94.369659,88.447304 88.168137,86.855499 82.100266,84.880081 
	C80.998665,84.521454 79.518471,81.544228 79.955765,80.800430 
	C88.100372,66.946968 96.442390,53.207596 104.884384,39.531578 
	C111.093422,29.472967 117.459839,19.510267 123.862198,9.573171 
	C125.340782,7.278249 127.252602,5.262459 129.672485,2.232441 
	C129.672485,4.589166 130.313736,6.628906 129.566422,7.698191 
	C125.328773,13.761567 124.469070,20.763617 122.757851,27.686489 
	C120.849152,35.408268 117.092995,42.657829 114.404724,50.206852 
	C111.719696,57.746784 109.360954,65.402908 106.628510,73.709282 
	C120.047050,76.923935 133.235046,80.083351 146.839569,83.342560 
	C143.869171,88.375526 140.917328,93.377075 137.742828,98.679062 
z"/>
<path fill="#FFFFFF" opacity="1.000000" stroke="none" 
	d="
M69.992149,50.004166 
	C74.812973,50.001827 79.135841,50.001827 85.222618,50.001827 
	C77.693985,62.898991 70.674385,74.924133 63.343948,87.481766 
	C70.055618,89.211510 76.198212,90.794586 82.921776,92.527397 
	C81.065147,92.850662 79.694359,93.089340 77.505920,93.470383 
	C84.993301,95.248688 91.662956,96.832779 98.332611,98.416870 
	C98.415459,98.077248 98.498306,97.737633 98.581154,97.398010 
	C96.205017,96.804260 93.828873,96.210510 91.452736,95.616760 
	C91.522430,95.304436 91.592125,94.992111 91.661812,94.679794 
	C98.559296,96.251709 105.456772,97.823624 113.355652,99.623756 
	C110.853859,99.866272 109.238937,100.022820 106.704620,100.268486 
	C110.042984,101.142227 112.559547,101.800888 115.076111,102.459541 
	C115.043541,102.826469 115.010971,103.193405 114.978401,103.560333 
	C113.817459,103.706024 112.656654,103.977684 111.495567,103.978851 
	C86.663223,104.003830 61.830772,104.020874 36.998680,103.938393 
	C35.638893,103.933868 34.282028,103.050980 32.923801,102.576950 
	C33.410023,101.425644 33.708870,100.142387 34.412029,99.143852 
	C40.179893,90.953110 46.042847,82.829376 51.824314,74.648117 
	C52.822220,73.236008 53.571236,71.648018 54.512817,70.005943 
	C37.159889,63.046478 18.805286,60.254208 2.797991,51.332401 
	C2.912194,50.890434 3.026397,50.448467 3.140600,50.006500 
	C25.258465,50.006500 47.376328,50.006500 69.992149,50.004166 
z"/>
<path fill="#FFFFFF" opacity="1.000000" stroke="none" 
	d="
M51.000000,48.994560 
	C35.222641,48.994560 19.945284,48.994560 4.667925,48.994560 
	C4.668040,48.771042 4.668156,48.547523 4.668271,48.324005 
	C30.554646,48.324005 56.441021,48.324005 82.327400,48.324005 
	C82.332161,48.547523 82.336922,48.771042 82.341682,48.994560 
	C72.061127,48.994560 61.780563,48.994560 51.000000,48.994560 
z"/>
<path fill="#FFFFFF" opacity="1.000000" stroke="none" 
	d="
M104.897842,105.996567 
	C81.144981,105.996567 57.877174,105.996567 34.609364,105.996567 
	C34.609550,105.766182 34.609741,105.535805 34.609928,105.305420 
	C60.539288,105.305420 86.468651,105.305420 112.398010,105.305420 
	C112.405670,105.535805 112.413330,105.766182 112.420982,105.996567 
	C110.074959,105.996567 107.728928,105.996567 104.897842,105.996567 
z"/>
</svg>